<?xml version="1.0" encoding="utf-8"?>
<!-- Generator: Adobe Illustrator 16.0.3, SVG Export Plug-In . SVG Version: 6.00 Build 0)  -->
<!DOCTYPE svg PUBLIC "-//W3C//DTD SVG 1.1//EN" "http://www.w3.org/Graphics/SVG/1.1/DTD/svg11.dtd">
<svg version="1.1" id="Layer_1" xmlns="http://www.w3.org/2000/svg" xmlns:xlink="http://www.w3.org/1999/xlink" x="0px" y="0px"
	 width="391px" height="356px" viewBox="0 0 391 356" enable-background="new 0 0 391 356" xml:space="preserve">
<polygon opacity="0.5" fill="#87FF45" points="203,214.591 317,292.073 317,193.073 203,115.591 "/>
<path d="M203,46.339h28v80.399c6.4-7.601,16.799-12.2,27.2-12.2c27.8,0,44.799,26,44.799,51.799c0,26.8-16.399,52.8-45.399,52.8
	c-9.999,0-20.599-4.4-26.199-12.4H231v9.2h-28V46.339z M274.599,166.737c0-13.2-8.8-27.399-23.199-27.399
	c-14.4,0-23.2,14.199-23.2,27.399s8.8,27.6,23.2,27.6C265.799,194.337,274.599,179.938,274.599,166.737z"/>
<path d="M338.396,215.937h-28v-98.199h28V215.937z"/>
<path fill="#87FF45" d="M151.198,115.394c-10.4,0-21.198,4.542-27.198,12.142v-6.563l-28,18.911v111.595l28-18.911V208h0.397
	c5.6,8,16.2,12.168,26.2,12.168c29,0,45.399-26.117,45.399-52.917C195.996,141.452,178.998,115.394,151.198,115.394z
	 M144.396,195.135c-14.399,0-23.199-14.399-23.199-27.6s8.8-27.399,23.199-27.399c14.4,0,23.2,14.199,23.2,27.399
	S158.796,195.135,144.396,195.135z"/>
<path fill="#87FF45" d="M60,164.198v81.236c0,11.199-1.8,24.6-16,24.6s-16-13.4-16-24.6v-59.623L0,204.723v45.312
	c0,25.178,11.676,39.81,34.343,42.951l53.445-36.163c0.201-2.173,0.212-4.43,0.212-6.788V145.287L60,164.198z"/>
<path d="M374,118V85h-15.528c-1.905,7.76-6.377,14.482-12.472,19.235V107v49v60h28v-75h17v-23H374z"/>
<path fill="#FFEE2E" d="M349.996,76.539c0,14.188-11.411,25.6-25.6,25.6c-14.187,0-25.6-11.412-25.6-25.6
	c0-13.879,11.413-25.6,25.6-25.6C338.585,50.939,349.996,62.659,349.996,76.539z"/>
<line fill="none" x1="7" y1="293" x2="628" y2="293"/>
</svg>
